{"accessors":[{"bufferView":1,"componentType":5126,"count":243,"max":[6.289565086364746,5.609292030334473,6.665492057800293],"min":[0.18956489861011505,0,0],"type":"VEC3"},{"bufferView":1,"byteOffset":2916,"componentType":5126,"count":243,"max":[0,0,0],"min":[0,0,0],"type":"VEC3"},{"bufferView":0,"componentType":5125,"count":492,"max":[242],"min":[0],"type":"SCALAR"},{"bufferView":1,"byteOffset":5832,"componentType":5126,"count":604,"max":[6.289565086364746,5.6800031661987305,6.665492057800293],"min":[0.18956489861011505,0,0],"type":"VEC3"},{"bufferView":1,"byteOffset":13080,"componentType":5126,"count":604,"max":[1,1,1],"min":[-0.9976087212562561,-0.9999991059303284,-0.9999991059303284],"type":"VEC3"},{"bufferView":0,"byteOffset":1968,"componentType":5125,"count":2466,"max":[603],"min":[0],"type":"SCALAR"},{"bufferView":1,"byteOffset":20328,"componentType":5126,"count":832,"max":[6.081471920013428,5.352330207824707,6.322197914123535],"min":[0.48935189843177795,0.21311989426612854,0.3360621929168701],"type":"VEC3"},{"bufferView":1,"byteOffset":30312,"componentType":5126,"count":832,"max":[0,0,0],"min":[0,0,0],"type":"VEC3"},{"bufferView":0,"byteOffset":11832,"componentType":5125,"count":1684,"max":[831],"min":[0],"type":"SCALAR"},{"bufferView":1,"byteOffset":40296,"componentType":5126,"count":1360,"max":[6.081471920013428,5.434718132019043,6.322197914123535],"min":[0.48935189843177795,0.21311989426612854,0.25367438793182373],"type":"VEC3"},{"bufferView":1,"byteOffset":56616,"componentType":5126,"count":1360,"max":[1,0.9995865821838379,0.9995865821838379],"min":[-0.999055802822113,-0.9995719194412231,-0.9995719194412231],"type":"VEC3"},{"bufferView":0,"byteOffset":18568,"componentType":5125,"count":4644,"max":[1359],"min":[0],"type":"SCALAR"},{"bufferView":1,"byteOffset":72936,"componentType":5126,"count":114,"max":[4.772159099578857,4.1042680740356445,2.235434055328369],"min":[4.285257816314697,2.8275840282440186,1.5707900524139404],"type":"VEC3"},{"bufferView":1,"byteOffset":74304,"componentType":5126,"count":114,"max":[0,0,0],"min":[0,0,0],"type":"VEC3"},{"bufferView":0,"byteOffset":37144,"componentType":5125,"count":236,"max":[113],"min":[0],"type":"SCALAR"},{"bufferView":1,"byteOffset":75672,"componentType":5126,"count":122,"max":[4.772159099578857,4.1042680740356445,2.235434055328369],"min":[4.285257816314697,2.8275840282440186,1.5707900524139404],"type":"VEC3"},{"bufferView":1,"byteOffset":77136,"componentType":5126,"count":122,"max":[0.34202009439468384,0.9572567939758301,0.9655634164810181],"min":[-0.34201058745384216,-0.9698045253753662,-0.9450395107269287],"type":"VEC3"},{"bufferView":0,"byteOffset":38088,"componentType":5125,"count":342,"max":[121],"min":[0],"type":"SCALAR"},{"bufferView":1,"byteOffset":78600,"componentType":5126,"count":68,"max":[1.882712960243225,1.7422000169754028,4.422689914703369],"min":[1.2654600143432617,0.859094500541687,3.714395046234131],"type":"VEC3"},{"bufferView":1,"byteOffset":79416,"componentType":5126,"count":68,"max":[0,0,0],"min":[0,0,0],"type":"VEC3"},{"bufferView":0,"byteOffset":39456,"componentType":5125,"count":138,"max":[67],"min":[0],"type":"SCALAR"},{"bufferView":1,"byteOffset":80232,"componentType":5126,"count":70,"max":[1.882712960243225,1.7422000169754028,4.422689914703369],"min":[1.2654600143432617,0.859094500541687,3.714395046234131],"type":"VEC3"},{"bufferView":1,"byteOffset":81072,"componentType":5126,"count":70,"max":[0.9664469957351685,0.7221680879592896,0.7289148569107056],"min":[-0.9679319262504578,-0.7158398032188416,-0.7285704016685486],"type":"VEC3"},{"bufferView":0,"byteOffset":40008,"componentType":5125,"count":204,"max":[69],"min":[0],"type":"SCALAR"},{"bufferView":1,"byteOffset":81912,"componentType":5126,"count":160,"max":[2.67875599861145,2.6493470668792725,3.562446117401123],"min":[2.4153029918670654,1.5523420572280884,2.9554738998413086],"type":"VEC3"},{"bufferView":1,"byteOffset":83832,"componentType":5126,"count":160,"max":[0,0,0],"min":[0,0,0],"type":"VEC3"},{"bufferView":0,"byteOffset":40824,"componentType":5125,"count":322,"max":[159],"min":[0],"type":"SCALAR"},{"bufferView":1,"byteOffset":85752,"componentType":5126,"count":162,"max":[2.67875599861145,2.6493470668792725,3.562446117401123],"min":[2.4153029918670654,1.5523420572280884,2.9554738998413086],"type":"VEC3"},{"bufferView":1,"byteOffset":87696,"componentType":5126,"count":162,"max":[0.0871298611164093,0.9979726076126099,0.9978321194648743],"min":[-0.08715555816888809,-0.9978414177894592,-0.9980391263961792],"type":"VEC3"},{"bufferView":0,"byteOffset":42112,"componentType":5125,"count":480,"max":[161],"min":[0],"type":"SCALAR"},{"bufferView":1,"byteOffset":89640,"componentType":5126,"count":76,"max":[3.9484410285949707,3.151573896408081,2.9761300086975098],"min":[3.2233150005340576,2.283931016921997,2.113377094268799],"type":"VEC3"},{"bufferView":1,"byteOffset":90552,"componentType":5126,"count":76,"max":[0,0,0],"min":[0,0,0],"type":"VEC3"},{"bufferView":0,"byteOffset":44032,"componentType":5125,"count":154,"max":[75],"min":[0],"type":"SCALAR"},{"bufferView":1,"byteOffset":91464,"componentType":5126,"count":78,"max":[3.9484410285949707,3.151573896408081,2.9761300086975098],"min":[3.2233150005340576,2.283931016921997,2.113377094268799],"type":"VEC3"},{"bufferView":1,"byteOffset":92400,"componentType":5126,"count":78,"max":[0.9997923970222473,0.7072140574455261,0.7068108320236206],"min":[-0.9998120069503784,-0.7071043252944946,-0.706238329410553],"type":"VEC3"},{"bufferView":0,"byteOffset":44648,"componentType":5125,"count":228,"max":[77],"min":[0],"type":"SCALAR"}],"asset":{"extras":{"author":"tiffrobbins (https://sketchfab.com/tiffrobbins)","license":"CC-BY-4.0 (http://creativecommons.org/licenses/by/4.0/)","source":"https://sketchfab.com/3d-models/love-in-a-shell-d7d27f02b3ce44e89ca2c47e0b13d083","title":"Love in a Shell"},"generator":"Sketchfab-6.22.0","version":"2.0"},"bufferViews":[{"buffer":0,"byteLength":45560,"byteOffset":0,"name":"floatBufferViews","target":34963},{"buffer":0,"byteLength":93336,"byteOffset":45560,"byteStride":12,"name":"floatBufferViews","target":34962}],"buffers":[{"byteLength":138896,"uri":"data:application/octet-stream;base64,"}],"materials":[{"doubleSided":false,"emissiveFactor":[0,0,0],"name":"edge_color000255","pbrMetallicRoughness":{"baseColorFactor":[0.7733516672,0.0102896474,0.0039457824,1],"metallicFactor":0,"roughnessFactor":0.6}},{"doubleSided":false,"emissiveFactor":[0.03,0.03,0.03],"name":"material","pbrMetallicRoughness":{"baseColorFactor":[0.8556989703,0.0014748112,0.0014748112,1],"metallicFactor":0,"roughnessFactor":0.6}}],"meshes":[{"name":"Material3","primitives":[{"attributes":{"NORMAL":1,"POSITION":0},"indices":2,"material":0,"mode":1}]},{"name":"Material2","primitives":[{"attributes":{"NORMAL":4,"POSITION":3},"indices":5,"material":1,"mode":4}]},{"name":"Material3","primitives":[{"attributes":{"NORMAL":7,"POSITION":6},"indices":8,"material":0,"mode":1}]},{"name":"Material2","primitives":[{"attributes":{"NORMAL":10,"POSITION":9},"indices":11,"material":1,"mode":4}]},{"name":"Material3","primitives":[{"attributes":{"NORMAL":13,"POSITION":12},"indices":14,"material":0,"mode":1}]},{"name":"Material2","primitives":[{"attributes":{"NORMAL":16,"POSITION":15},"indices":17,"material":1,"mode":4}]},{"name":"Material3","primitives":[{"attributes":{"NORMAL":19,"POSITION":18},"indices":20,"material":0,"mode":1}]},{"name":"Material2","primitives":[{"attributes":{"NORMAL":22,"POSITION":21},"indices":23,"material":1,"mode":4}]},{"name":"Material3","primitives":[{"attributes":{"NORMAL":25,"POSITION":24},"indices":26,"material":0,"mode":1}]},{"name":"Material2","primitives":[{"attributes":{"NORMAL":28,"POSITION":27},"indices":29,"material":1,"mode":4}]},{"name":"Material3","primitives":[{"attributes":{"NORMAL":31,"POSITION":30},"indices":32,"material":0,"mode":1}]},{"name":"Material2","primitives":[{"attributes":{"NORMAL":34,"POSITION":33},"indices":35,"material":1,"mode":4}]}],"nodes":[{"children":[1],"name":"RootNode (gltf orientation matrix)","rotation":[-0.7071067811865475,0,0,0.7071067811865476]},{"children":[2],"name":"RootNode (model correction matrix)"},{"children":[3],"name":"Collada visual scene group"},{"children":[4],"name":"SketchUp"},{"children":[5,6,7,8,9,10,11,12,13,14,15,16],"matrix":[1,0,0,0,0,1,0,0,0,0,1,0,-1.289565,-1.939538,-0.3229723,1],"name":"OuterShell"},{"mesh":0,"name":"Material3"},{"mesh":1,"name":"Material2"},{"mesh":2,"name":"Material3"},{"mesh":3,"name":"Material2"},{"mesh":4,"name":"Material3"},{"mesh":5,"name":"Material2"},{"mesh":6,"name":"Material3"},{"mesh":7,"name":"Material2"},{"mesh":8,"name":"Material3"},{"mesh":9,"name":"Material2"},{"mesh":10,"name":"Material3"},{"mesh":11,"name":"Material2"}],"scene":0,"scenes":[{"name":"OSG_Scene","nodes":[0]}]}